<?xml version="1.0" standalone="no"?><!DOCTYPE svg PUBLIC "-//W3C//DTD SVG 1.1//EN" "http://www.w3.org/Graphics/SVG/1.1/DTD/svg11.dtd"><svg t="1703610660103" class="icon" viewBox="0 0 1024 1024" version="1.1" xmlns="http://www.w3.org/2000/svg" p-id="765" xmlns:xlink="http://www.w3.org/1999/xlink" width="64" height="64"><path d="M157.8304 378.1152c0 13.1968-8.9792 23.8944-20.0544 23.8944h-10.0256c-11.0752 0-20.0544-10.6976-20.0544-23.8944V294.4896c0-13.1968 8.9792-23.8944 20.0544-23.8944h10.0256c11.0752 0 20.0544 10.6976 20.0544 23.8944v83.6256zM122.6304 498.0096c0 10.8448-6.3008 19.6256-14.0768 19.6256h-7.04c-7.776 0-14.08-8.784-14.08-19.6256v-68.6912c0-10.8384 6.304-19.6256 14.08-19.6256h7.04c7.7792 0 14.0768 8.7872 14.0768 19.6256v68.6912z" fill="#00A0E9" p-id="766"></path><path d="M174.576 311.2352c13.1968 0 23.8944 8.9792 23.8944 20.0544v10.0256c0 11.0752-10.6976 20.0544-23.8944 20.0544H90.9504c-13.1968 0-23.8944-8.9792-23.8944-20.0544v-10.0256c0-11.0752 10.6976-20.0544 23.8944-20.0544h83.6256zM195.2448 377.5808c19.7152 0 35.7056 8.9824 35.7056 20.0576v10.0256c0 11.0752-15.9904 20.0544-35.7056 20.0544H70.2816c-19.7216 0-35.7056-8.9792-35.7056-20.0544v-10.0256c0-11.0752 15.984-20.0576 35.7056-20.0576h124.9632z" fill="#00A0E9" p-id="767"></path><path d="M178.096 498.0128c0 10.8448-6.3008 19.6224-14.0768 19.6224h-7.04c-7.7792 0-14.08-8.7808-14.08-19.6224v-68.6912c0-10.8384 6.304-19.6256 14.08-19.6256h7.04c7.7792 0 14.0768 8.7872 14.0768 19.6256v68.6912zM79.3248 481.248c0 5.5488-4.3904 10.048-9.8112 10.048H64.608c-5.4176 0-9.8144-4.496-9.8144-10.048v-35.1616c0-5.5488 4.3968-10.048 9.8144-10.048h4.9056c5.4208 0 9.8112 4.4992 9.8112 10.048v35.1616zM210.736 481.248c0 5.5488-4.3936 10.048-9.8144 10.048h-4.9056c-5.4176 0-9.8144-4.496-9.8144-10.048v-35.1616c0-5.5488 4.3968-10.048 9.8144-10.048h4.9056c5.4208 0 9.8144 4.4992 9.8144 10.048v35.1616zM291.168 378.1152c0 13.1968-8.9824 23.8944-20.0576 23.8944H261.088c-11.0752 0-20.0544-10.6976-20.0544-23.8944V294.4896c0-13.1968 8.9792-23.8944 20.0544-23.8944h10.0256c11.0752 0 20.0576 10.6976 20.0576 23.8944v83.6256zM255.968 498.0096c0 10.8448-6.3008 19.6256-14.0768 19.6256h-7.04c-7.776 0-14.08-8.784-14.08-19.6256v-68.6912c0-10.8384 6.304-19.6256 14.08-19.6256h7.04c7.7792 0 14.0768 8.7872 14.0768 19.6256v68.6912z" fill="#00A0E9" p-id="768"></path><path d="M307.9136 311.2352c13.1968 0 23.8944 8.9792 23.8944 20.0544v10.0256c0 11.0752-10.6976 20.0544-23.8944 20.0544H224.288c-13.1968 0-23.8944-8.9792-23.8944-20.0544v-10.0256c0-11.0752 10.6976-20.0544 23.8944-20.0544h83.6256zM328.5824 377.5808c19.7184 0 35.7056 8.9824 35.7056 20.0576v10.0256c0 11.0752-15.9872 20.0544-35.7056 20.0544H203.6192c-19.7216 0-35.7056-8.9792-35.7056-20.0544v-10.0256c0-11.0752 15.984-20.0576 35.7056-20.0576h124.9632z" fill="#00A0E9" p-id="769"></path><path d="M311.4336 498.0128c0 10.8448-6.3008 19.6224-14.0768 19.6224h-7.04c-7.7792 0-14.08-8.7808-14.08-19.6224v-68.6912c0-10.8384 6.304-19.6256 14.08-19.6256h7.04c7.7792 0 14.0768 8.7872 14.0768 19.6256v68.6912zM344.0736 481.248c0 5.5488-4.3936 10.0448-9.8112 10.0448h-4.9056c-5.4176 0-9.8176-4.4928-9.8176-10.0448v-35.1616c0-5.5488 4.4-10.048 9.8176-10.048h4.9056c5.4176 0 9.8112 4.4992 9.8112 10.048v35.1616zM504.9824 285.7824v34.6272h-30.4256c-1.0016 0-2.0032 0-3.0048 0.0352V285.7824c0-7.584 5.9712-13.712 13.3664-13.712h6.7008c7.392 0 13.3632 6.128 13.3632 13.712z" fill="#00A0E9" p-id="770"></path><path d="M504.9824 320.4096v13.2864c0 7.5872-5.9712 13.712-13.3664 13.712h-6.7008c-7.3952 0-13.3664-6.1248-13.3664-13.712v-13.2512c1.0016-0.0352 2.0032-0.0352 3.0048-0.0352h30.4288zM614.064 285.7824v34.6272h-33.4688V285.7824c0-7.584 6-13.712 13.3632-13.712h6.7008c7.392 0 13.4048 6.128 13.4048 13.712zM614.064 320.4096v13.2864c0 7.5872-6.0128 13.712-13.4048 13.712h-6.7008c-7.3632 0-13.3632-6.1248-13.3632-13.712v-13.2864h33.4688z" fill="#00A0E9" p-id="771"></path><path d="M655.3504 337.3536v8.4736c0 9.3568-17.9872 16.944-40.176 16.944h-140.6176c-22.1856 0-40.1728-7.5872-40.1728-16.944v-8.4736c0-8.9344 16.368-16.256 37.1648-16.9088 1.0016-0.0352 2.0032-0.0352 3.0048-0.0352h140.6176c22.192 0 40.1792 7.584 40.1792 16.944z" fill="#00A0E9" p-id="772"></path><path d="M528.4992 389.2a25.504 25.504 0 0 1-3.424 12.7104l-2.5824 4.4672a25.4848 25.4848 0 0 0-37.9328 7.2032l-3.472 6.048-18.832-10.8608 18.6752-32.3552c7.0528-12.1696 22.6112-16.368 34.8224-9.3216a25.5232 25.5232 0 0 1 12.7456 22.1088z" fill="#EA5030" p-id="773"></path><path d="M481.088 419.6256l-14.48 25.0688-16.1024 27.8496a25.616 25.616 0 0 1-9.6256-19.9904c0-4.3136 1.1136-8.704 3.4272-12.7104l17.9488-31.0816 18.832 10.864z" fill="#00A0E9" p-id="774"></path><path d="M491.9136 459.296l-3.4688 6.048c-7.0464 12.1696-22.608 16.3712-34.816 9.3216a26.6048 26.6048 0 0 1-3.1264-2.1184l16.1024-27.8496 25.3088 14.5984z" fill="#1296db" p-id="775"></path><path d="M510.7456 470.16l-18.6816 32.352a25.488 25.488 0 0 1-44.1408-25.4976l2.5824-4.4672c0.9664 0.768 2.0064 1.4656 3.1264 2.1184 12.2048 7.0496 27.7696 2.848 34.816-9.3216l3.4688-6.048 18.8288 10.864z" fill="#EA5030" p-id="776"></path><path d="M522.4928 406.3776l-16.096 27.8464-25.3088-14.5984 3.472-6.048a25.4848 25.4848 0 0 1 37.9328-7.2z" fill="#1296db" p-id="777"></path><path d="M506.4 434.224l-14.4864 25.072-25.3056-14.5984 14.48-25.072z" fill="#1296db" p-id="778"></path><path d="M532.1248 426.3648c0 4.3136-1.12 8.704-3.424 12.7104l-17.9552 31.0816-18.832-10.864 14.4832-25.072 16.096-27.8464a25.6 25.6 0 0 1 9.632 19.9904z" fill="#00A0E9" p-id="779"></path><path d="M540.2688 490.9184c0-4.3136 1.1136-8.704 3.424-12.7104l2.576-4.4672c0.9632 0.7712 2.0064 1.4656 3.1264 2.1184a25.4816 25.4816 0 0 0 34.8128-9.3216l3.4688-6.048 18.8384 10.864-18.6816 32.3552a25.4976 25.4976 0 0 1-34.8192 9.3216 25.5264 25.5264 0 0 1-12.7456-22.112z" fill="#EA5030" p-id="780"></path><path d="M587.6736 460.4896l14.4864-25.072 16.0992-27.8464a25.6 25.6 0 0 1 9.6256 19.9904c0 4.3104-1.12 8.704-3.424 12.7072l-17.9488 31.0816-18.8384-10.8608z" fill="#1296db" p-id="781"></path><path d="M576.8576 420.8192l3.4624-6.048c7.0496-12.1696 22.6112-16.3712 34.8192-9.3216 1.12 0.656 2.1632 1.3504 3.1264 2.1216l-16.0992 27.8464-25.3088-14.5984z" fill="#d81e06" p-id="782"></path><path d="M558.0192 409.9584l18.688-32.352a25.4816 25.4816 0 0 1 47.5552 12.7872c0 4.3104-1.1136 8.704-3.424 12.7104l-2.576 4.4672a25.9808 25.9808 0 0 0-3.1264-2.1216c-12.2048-7.0496-27.7696-2.848-34.8192 9.3216l-3.4624 6.048-18.8352-10.8608z" fill="#EA5030" p-id="783"></path><path d="M546.2688 473.7376l16.0992-27.8464 25.3056 14.5984-3.4688 6.048a25.4816 25.4816 0 0 1-37.936 7.2z" fill="#1296db" p-id="784"></path><path d="M562.368 445.8912l14.4896-25.072 25.3056 14.5984-14.4896 25.072z" fill="#1296db" p-id="785"></path><path d="M536.6432 453.7504c0-4.3136 1.12-8.704 3.424-12.7104l17.9488-31.0816 18.8384 10.8608-14.4864 25.072-16.0992 27.8464a25.5968 25.5968 0 0 1-9.6256-19.9872zM885.072 269.2608c15.1744 0 27.4848 10.0256 27.4848 22.3936v11.2c0 12.3648-12.3104 22.3872-27.4848 22.3872h-96.2048c-15.1808 0-27.4816-10.0224-27.4816-22.3872v-11.2c0-12.368 12.3008-22.3936 27.4816-22.3936h96.2048zM913.7344 342.6688c24.2272 0 43.8688 10.0256 43.8688 22.3936v11.2c0 12.3648-19.6416 22.3936-43.8688 22.3936h-153.536c-24.2304 0-43.8688-10.0288-43.8688-22.3936v-11.2c0-12.368 19.6384-22.3936 43.8688-22.3936h153.536z" fill="#00A0E9" p-id="786"></path><path d="M778.4544 489.1648c-9.7632 13.8208-25.8848 19.2448-35.9712 12.1056l-9.1456-6.464c-10.096-7.1328-10.3648-24.1312-0.5952-37.952l61.9168-87.6032c9.776-13.824 25.8784-19.248 35.9712-12.1088l9.1488 6.4608c10.096 7.1424 10.3616 24.1344 0.5984 37.9616l-61.9232 87.6z" fill="#00A0E9" p-id="787"></path><path d="M908.768 448.0544c22.4672 0 40.6912 11.5456 40.6912 25.7888v12.8928c0 14.24-18.224 25.7856-40.6912 25.7856h-142.4256c-22.4832 0-40.688-11.5456-40.688-25.7856v-12.8928c0-14.24 18.2016-25.7888 40.688-25.7888h142.4256z" fill="#00A0E9" p-id="788"></path><path d="M952.4288 474.1952c5.9072 8.5856 3.3344 20.6112-5.744 26.8672l-8.224 5.664c-9.0752 6.2496-21.232 4.3552-27.1392-4.2272l-37.44-54.3936c-5.9136-8.5888-3.3344-20.6112 5.7408-26.8608l8.224-5.664c9.0816-6.2528 21.2352-4.3648 27.1456 4.2208l37.4368 54.3936z" fill="#00A0E9" p-id="789"></path></svg>